# xmcd 2.0 CD database file
#
# Track frame offsets:
#	150
#	11423
#	22313
#	35008
#	45698
#	57860
#	72490
#	86678
#	100145
#	113230
#	127530
#	140753
#	154768
#	167855
#
# Disc length: 2411 seconds
#
# Revision: 1
# Processed by: cddbd v1.4PL0 Copyright (c) Steve Scherf et al.
# Submitted via: wdb2cddb 1.0 (woembie)
#
DISCID=be09690e
DTITLE=Elmore James, Eddie Taylor, Jimmy Reed - Street Talkin'
DYEAR=1975
DGENRE=
TTITLE0=Coming Home
TTITLE1=Take Me Where You Go
TTITLE2=Cry For Me Baby
TTITLE3=Elmore's Contribution To Jazz
TTITLE4=Knocking At Your Door
TTITLE5=It Hurts Me Too
TTITLE6=The 12 Year Old Boy
TTITLE7=You'll Always Have A Home
TTITLE8=Do You Want Me To Cry
TTITLE9=Big Town Playboy
TTITLE10=Ride 'Em On Down
TTITLE11=Bad Boy
TTITLE12=I'm Sitting Here
TTITLE13=Don't Knock At My Door
EXTD=(C) 1975 Muse Records,\nTracks 1-7 Elmore James,\nTr
EXTD=acks 8-14 Eddie Taylor, Jimmy Reed
EXTT0=Elmore James, vocals and guitar\nEddie Taylor, guitar
EXTT1=Elmore James, vocals and guitar\nEddie Taylor, guitar
EXTT2=Elmore James, vocals and guitar\nEddie Taylor, guitar
EXTT3=Elmore James, vocals and guitar\nEddie Taylor, guitar
EXTT4=Elmore James, vocals and guitar\nEddie Taylor, guitar
EXTT5=Elmore James, vocals and guitar\nEddie Taylor, guitar
EXTT6=Elmore James, vocals and guitar\nEddie Taylor, guitar
EXTT7=Eddie Taylor, vocals and guitar\nJimmy Reed, harmonica and guitar
EXTT8=Eddie Taylor, vocals and guitar\nJimmy Reed, harmonica and guitar
EXTT9=Eddie Taylor, vocals and guitar\nJimmy Reed, harmonica and guitar
EXTT10=Eddie Taylor, vocals and guitar\nJimmy Reed, harmonica and guitar
EXTT11=Eddie Taylor, vocals and guitar\nJimmy Reed, harmonica and guitar
EXTT12=Eddie Taylor, vocals and guitar\nJimmy Reed, harmonica and guitar
EXTT13=Eddie Taylor, vocals and guitar\nJimmy Reed, harmonica and guitar
PLAYORDER=
